<?xml version="1.0" encoding="utf-8"?><svg xmlns="http://www.w3.org/2000/svg" xmlns:xlink="http://www.w3.org/1999/xlink" viewBox="0 0 70.4 70.4"><style>.st0{display:none}.st56{fill:#2f2f2f}.st57{fill:#0078d4}</style><switch><g><g id="content"><path class="st56" d="M42.2 53.5v6.7l4.7-4.7 7 7 11.8-11.7v-6.6L53.9 55.9l-7-7.1z"/><path fill="#c2c2c2" d="M70.4 32.8H37.5V0h-4.7v32.8H0v4.7h32.8v32.9h4.7V37.5h32.9z"/><path class="st56" d="M4.7 9.4h4.7v18.8H4.7zM42.2 14.1h14.1v4.7H42.2z"/><path class="st57" d="M23.5 4.7h4.7v23.5h-4.7z"/><path class="st56" d="M14.1 14.1h4.7v14.1h-4.7zM10.4 47.6c-1.1.5-2.1 1.2-3 2-.9.9-1.5 1.9-2 3s-.7 2.4-.7 3.6c0 1.3.2 2.5.7 3.6.5 1.1 1.2 2.1 2 3 .9.9 1.9 1.5 3 2s2.4.7 3.6.7c1.3 0 2.5-.2 3.6-.7 1.1-.5 2.1-1.2 3-2 .9-.9 1.5-1.9 2-3s.7-2.3.7-3.6h-9.4v-9.4c-1.1.1-2.3.3-3.5.8z"/><path class="st57" d="M27.4 47.9c-.5-1.1-1.2-2.1-2-3-.9-.9-1.9-1.5-3-2s-2.4-.7-3.6-.7v9.4h9.4c-.1-1.3-.3-2.5-.8-3.7z"/><path class="st56" d="M42.2 4.7H61v4.7H42.2zM42.2 23.5h23.5v4.7H42.2z"/></g></g></switch></svg>