<svg id="Layer_1" data-name="Layer 1" 
    xmlns="http://www.w3.org/2000/svg" viewBox="0 0 803 173.5">
    <title>logo</title>
    <path fill="#ef5125" d="M.87,1.07H82.13v81.6H.87Z"/>
    <path fill="#80ba42" d="M90.43,1.07H171.7v81.6H90.44V1.07Z"/>
    <path fill="#787878" d="M733.73,32.16c7.49-4.9,17.17-5.35,25.61-3,.08,5,0,10.08,0,15.12-4-1.77-8.74-2.93-13-1.19-3.35,1.34-5.34,4.79-5.86,8.24-.63,4.37-.22,8.81-.33,13.21h25.72c.06-5.59-.07-11.18.07-16.77,5.83-1.66,11.59-3.53,17.39-5.29,0,7.37-.07,14.73.06,22.1,5.8-.08,11.6,0,17.4,0V78.86c-5.82-.24-11.65-.06-17.46-.08V103.5c.09,4.56-.25,9.15.28,13.7.33,2.68,1.3,5.65,3.8,7,4.19,2.36,9.51,1.33,13.37-1.26v14.48a34.37,34.37,0,0,1-16.07,2.47c-5.16-.38-10.5-2.27-13.86-6.38-3.89-4.65-4.89-10.95-5-16.84-.05-12.65,0-25.29,0-37.94H740.12v59.54H722.65V78.75c-4.07-.08-8.15,0-12.23-.06V64.55c4.06-.09,8.12-.06,12.18,0,.3-6.26-.65-12.7,1.21-18.81a24.11,24.11,0,0,1,9.92-13.58Z"/>
    <path fill="#787878" d="M357.41,33.19a10.72,10.72,0,0,1,9.73,3.46,10.09,10.09,0,0,1,1.22,11.46A10.91,10.91,0,0,1,356.66,53a10,10,0,0,1-8.16-9.83,10.19,10.19,0,0,1,8.91-10Z"/>
    <path fill="#787878" d="M222.71,35.37h25.56q11.94,30.43,23.94,60.84c2,5.07,3.94,10.2,6.07,15.24,10.23-25.35,20.62-50.64,30.77-76,8.2-.13,16.4,0,24.6,0V138.36c-5.91,0-11.82,0-17.73,0,.06-25.32,0-50.63,0-76,0-1.14,0-2.27-.11-3.41a12.15,12.15,0,0,0-.92,1.65c-10.16,25.91-20.51,51.75-30.61,77.68-4.21.15-8.42,0-12.64.08-10.48-25.91-20.82-51.88-31.25-77.81-.27-.54-.57-1.07-.88-1.57-.22,11.09,0,22.19-.1,33.28v46.08H222.68V35.46Z"/>
    <path fill="#787878" d="M405.78,64.46a48,48,0,0,1,26.11.08,20.71,20.71,0,0,1,5,2.1c-.1,5.62,0,11.25,0,16.87-5.67-4.35-12.86-7.1-20.06-6.19a20.62,20.62,0,0,0-14.6,8.14c-4.4,5.76-5.42,13.4-4.66,20.43.57,5.51,2.84,11,7.1,14.67,4.44,4,10.65,5.36,16.45,4.91A33.38,33.38,0,0,0,436.85,119v16c-7.19,4.29-15.8,5.4-24,5A35.51,35.51,0,0,1,390,130.37c-6.62-6.41-10.22-15.55-10.64-24.7-.43-9.51,1.5-19.43,6.95-27.38a35.4,35.4,0,0,1,19.5-13.83Z"/>
    <path fill="#787878" d="M597.78,63.34a46.28,46.28,0,0,1,24.32,2.54V82.1a30.9,30.9,0,0,0-18.46-5.47c-3.29.13-6.9,1.52-8.4,4.66-1.19,3.1-.36,7.17,2.55,9,5,3.35,10.93,4.77,16.09,7.77,4.07,2.29,8,5.29,10.07,9.61,3.87,8.1,2.23,18.8-4.57,24.84-6.5,6.09-15.86,7.78-24.46,7.46a52.21,52.21,0,0,1-17.87-4.12V118.79a38.41,38.41,0,0,0,16,6.94c4,.66,8.38.69,12.13-1.12,3.58-1.79,4.22-6.9,2.09-10-2-2.41-4.91-3.74-7.67-5-5.18-2.34-10.62-4.29-15.17-7.8a18.21,18.21,0,0,1-6.56-10c-1.41-5.87-1-12.48,2.43-17.6,3.88-6,10.62-9.56,17.49-10.79Z"/>
    <path fill="#787878" d="M476.2,65.66a19.77,19.77,0,0,1,16.32-1.38V81.94a18.62,18.62,0,0,0-11.88-2.81c-5,.57-8.94,4.42-11,8.83-2.23,4.67-2.65,10-2.51,15.06V138.3H449.8V64.57c5.79-.07,11.57,0,17.35,0V77.24c1.88-4.59,4.68-9,9.08-11.56Z"/>
    <path fill="#787878" d="M350.09,64.55c5.83,0,11.66-.08,17.49,0-.07,24.57,0,49.15,0,73.72H350.1V64.55Z"/>
    <path fill="#787878" d="M565.38,81.75A31.24,31.24,0,0,0,550,66.17c-7.82-3.58-16.72-4.06-25.16-3-8.86,1.12-17.48,5.31-23.1,12.4C496.6,81.9,494.1,90,493.62,98.11c-.7,9.51.88,19.61,6.44,27.55A33.3,33.3,0,0,0,520.39,139,50.39,50.39,0,0,0,541,139a34,34,0,0,0,20.17-12.51c4.79-6.1,7.19-13.79,7.73-21.47C569.42,97.15,568.63,89,565.38,81.75Zm-17,33.86a16.12,16.12,0,0,1-8.64,8.52,23.59,23.59,0,0,1-14.32.63,17.5,17.5,0,0,1-11-9.13c-2.83-5.67-3.25-12.23-2.67-18.46.53-5.66,2.5-11.48,6.79-15.39A18.29,18.29,0,0,1,530.1,77.2c5.29-.35,10.91,1.15,14.71,5,4.06,4,5.63,9.82,6.06,15.37.32,6.08.07,12.43-2.47,18Z"/>
    <path fill="#787878" d="M706.14,83.88A31.44,31.44,0,0,0,691,66.73c-8-4.06-17.32-4.66-26.09-3.56a36.33,36.33,0,0,0-19.42,8.36C638.9,77.23,635,85.61,633.9,94.19s-.72,17.6,2.76,25.62a32.63,32.63,0,0,0,17.86,17.39c7.82,3.1,16.52,3.44,24.75,2.1a34.27,34.27,0,0,0,21.61-12.68c5.57-7.07,8-16.21,8-25.12A47.41,47.41,0,0,0,706.14,83.88Zm-15.85,25a23.18,23.18,0,0,1-4.55,10.83,16.43,16.43,0,0,1-10.27,5.54,23.08,23.08,0,0,1-12.57-1.37,17.84,17.84,0,0,1-9.27-9.74,35.19,35.19,0,0,1-2.09-16.07c.4-5.24,1.88-10.61,5.33-14.69A18,18,0,0,1,669.7,77.2c5-.34,10.26.81,14.08,4.17,3.52,2.94,5.47,7.33,6.36,11.75a45.4,45.4,0,0,1,.15,15.77Z"/>
    <path fill="#349fd9" d="M.87,91H82.13v81.59H.87Z"/>
    <path fill="#fcb713" d="M90.44,91H171.7v81.6H90.43V91Z"/>
</svg>