<svg id="Layer_1" data-name="Layer 1" 
    xmlns="http://www.w3.org/2000/svg" viewBox="0 0 48 48">
    <title>boat</title>
    <path d="M35.7,27.5H24.2l-3-4.2H5v9.4H35.7Zm-28.2,0a1.2,1.2,0,0,1,0-2.4,1.16,1.16,0,0,1,1.2,1.2A1.1,1.1,0,0,1,7.5,27.5Zm4.7,0a1.2,1.2,0,1,1,1.2-1.2A1.22,1.22,0,0,1,12.2,27.5Zm4.6,0A1.2,1.2,0,1,1,18,26.3,1.16,1.16,0,0,1,16.8,27.5Z" fill="currentColor"/>
    <rect x="28" y="9.7" width="4.4" height="15.7"/>
    <path d="M22.1,5.5a2.72,2.72,0,0,0,1.7-.6,2,2,0,0,0,1.3.4.9.9,0,0,0,.5-.1,1.71,1.71,0,0,0,1.7,1.3h.1a1.4,1.4,0,1,0,2.8,0A1.4,1.4,0,0,0,29,5.1V4.8a1.75,1.75,0,0,0-1.7-1.7A2.22,2.22,0,0,0,25.1.9c-.3,0-.5.1-.7.1a3.29,3.29,0,0,0-2.3-1,2.8,2.8,0,0,0-2.8,2.8A2.71,2.71,0,0,0,22.1,5.5Z"/>
    <path d="M0,34.7,4.5,46.1A3,3,0,0,0,7.3,48H40.8a3.17,3.17,0,0,0,2.8-1.9L48,34.7Zm37.9,5.1a1.6,1.6,0,1,1,1.6-1.6A1.64,1.64,0,0,1,37.9,39.8Zm4.7,0a1.6,1.6,0,1,1,1.6-1.6A1.58,1.58,0,0,1,42.6,39.8Z"/>
</svg>