<svg id="Layer_1" data-name="Layer 1" 
    xmlns="http://www.w3.org/2000/svg" viewBox="0 0 48 48">
    <title>camera</title>
    <path d="M24,36.2a9.5,9.5,0,1,0-9.5-9.5A9.56,9.56,0,0,0,24,36.2Zm1.6-15c.6-.6,2.1-.2,3.3.9s1.6,2.6.9,3.3-2.1.2-3.3-.9S24.9,21.9,25.6,21.2Z" fill="currentColor"/>
    <path d="M35.4,26.7a11.4,11.4,0,0,1-22.8,0,11,11,0,0,1,1.2-5.1H0V38.8a3,3,0,0,0,3,3H45a3,3,0,0,0,3-3V21.6H34.2A10.67,10.67,0,0,1,35.4,26.7Z"/>
    <path d="M45,11.6H42.8V9.2H38.3v2.4H34.2L32.6,8a3,3,0,0,0-2.7-1.8H18.1A2.84,2.84,0,0,0,15.4,8l-1.6,3.6h-4V9.2H5.3v2.4H3a3,3,0,0,0-3,3v4.9H15.1a11.36,11.36,0,0,1,17.8,0H48V14.6A3,3,0,0,0,45,11.6ZM20.2,8.7h7.5a.94.94,0,0,1,1,1,.94.94,0,0,1-1,1H20.2a.94.94,0,0,1-1-1A1,1,0,0,1,20.2,8.7Zm21.6,8.4H39.3a1,1,0,1,1,0-2h2.5a1,1,0,0,1,0,2Z"/>
</svg>