<?xml version="1.0" encoding="utf-8"?>
<!-- Generator: Adobe Illustrator 23.0.4, SVG Export Plug-In . SVG Version: 6.00 Build 0)  -->
<svg version="1.1" id="Layer_1" 
	xmlns="http://www.w3.org/2000/svg" 
	xmlns:xlink="http://www.w3.org/1999/xlink" x="0px" y="0px" viewBox="0 0 48 48" style="enable-background:new 0 0 48 48;" xml:space="preserve">
	<path d="M32.8,6.4h-1.5L31,8.5l0.4,1.2l-1.7,0.6l-1.5,2l1,2.1l-1.6,1.2l4.5,3.3l0.2,1.8l2-0.2v2.1l2.3-0.5l3.5-1.6l-0.7-0.6l1.1-3.4
	l-3.3-5.1V9.5l-0.4-1.2l0.5-1.8c-1.8-1.4-3.2-2.4-4.1-2.7L32.8,6.4z" fill="currentColor" />
	<path d="M37.3,6.5L37.3,6.5c0.6,0.5,1.2,0.9,1.5,1.3C38.3,7.3,37.8,6.9,37.3,6.5z"/>
	<path d="M39.1,8c0.1,0.1,0.1,0.1,0.2,0.2C39.2,8.1,39.1,8,39.1,8z"/>
	<path d="M24,0C10.7,0,0,10.7,0,24s10.7,24,24,24s24-10.7,24-24C48,10.8,37.2,0,24,0z M41.8,26.4l-1.9,1.9l-2,0.9L37,32.4l-1.9,0.2
	L33.2,35l-1.9,1.3l1.2,2.6l2.6,0.8l-3.7,0.9l-3-1.4L27,40.8l-3.4,1l-1,3.1l1.9,1.1h-0.4c-3.9,0-7.8-1-11.2-3l1.4-0.6l4.1-3L17.8,37
	l2.1-2.1l2.4-0.4l-1-2.8l0.2-2.1l2.1-3.9v-3.2l-2.7-2.4l-4.5,0.3v-3.3l-0.9-1.9l0.6-3.6l-1.7-5.2l-2.7,0.8l-1.1,1.9L10,11.9
	l-1.9,1.3v4.4l-2.5,4.9l0.7,1l-4.1,3.1C2.1,25.7,2,24.9,2,24C2,11.9,11.9,2,24,2c1.8,0,3.6,0.2,5.4,0.7c0,0,0,0,0.1,0
	c3.1,0.7,6,2.4,7.8,3.8l0,0c0.5,0.4,1,0.8,1.5,1.3C38.9,7.8,39,7.9,39.1,8c0.1,0.1,0.1,0.1,0.2,0.2c0.1,0.1,0.2,0.2,0.2,0.2l0,0
	c4.1,4,6.4,9.4,6.5,15.1l-3.1-0.3L41.8,26.4z"/>
	<path d="M39.5,8.4c0,0-0.1-0.1-0.2-0.2C39.3,8.2,39.4,8.3,39.5,8.4L39.5,8.4z"/>
	<path d="M38.8,7.8C38.9,7.8,39,7.9,39.1,8C39,7.9,38.9,7.8,38.8,7.8z"/>
</svg>
