<svg id="Layer_1" data-name="Layer 1" 
    xmlns="http://www.w3.org/2000/svg" viewBox="0 0 48 48">
    <title>earth</title>
    <path d="M33,6.1a1.42,1.42,0,0,0-1.4-.9H16.4a1.57,1.57,0,0,0-1.4.9L13,11H11l4.1,4.1,4.8-.9a.81.81,0,0,1,.9.3l7.8,7.8a1,1,0,0,1,0,1.4L22.3,30a1,1,0,0,1-1.4,0l-7.8-7.8a1.4,1.4,0,0,1-.3-.9l.9-4.8L9.6,12.4V42.8H38.4V11H35ZM16.3,11l1.2-2.8H30.7L31.9,11Z"/>
    <path d="M45,11H40.4V42.8H45a3,3,0,0,0,3-3V14A3,3,0,0,0,45,11Z"/>
    <path d="M0,14V39.8a3,3,0,0,0,3,3H7.6V11H3A3,3,0,0,0,0,14Z"/>
    <polygon points="26.4 23 19.7 16.3 15.6 17 14.9 21.1 21.6 27.8 26.4 23" fill="currentColor" />
</svg>