<svg id="Layer_1" data-name="Layer 1" 
    xmlns="http://www.w3.org/2000/svg" viewBox="0 0 48 48">
    <title>map</title>
    <path d="M38.6,26a1,1,0,0,0-1-.8H10.3a1,1,0,0,0-1,.8L4.8,46.8a1,1,0,0,0,1,1.2H42.2a.94.94,0,0,0,1-1C43.2,46.8,38.6,26,38.6,26Zm-.8,5.2.8,4.1-8.1,3.6L29,38.1l3.2-5.6Zm-20.3-4H36.9l.5,2.1-6.1,1.4a1.16,1.16,0,0,0-.7.5l-3.4,6-2.6-1.4H23.4l-3.9,3-5.2-3.7,2.5-7.9Zm-6.4,0h3.6l-2.5,7.9a1,1,0,0,0,.4,1.1l5.1,3.6L7.2,45.1ZM10,46l10-5.1a.35.35,0,0,1,.2-.1l4-3,5.9,3.1a1,1,0,0,0,.9,0l8.2-3.6L41,46Z"/>
    <path d="M24.6,35.8S28.14,30.27,31,25.2h0c2.7-4.8,5.1-10,5.1-13a12.15,12.15,0,1,0-24.3,0c0,2,1,4.91,2.53,8.06.53.92,7.51,13.2,9.07,15.54ZM15.5,12.2A8.5,8.5,0,1,1,24,20.7,8.49,8.49,0,0,1,15.5,12.2Z" fill="currentColor" />
</svg>