<svg id="Layer_1" data-name="Layer 1" 
    xmlns="http://www.w3.org/2000/svg" viewBox="0 0 48 48">
    <title>sunscreen</title>
    <path d="M17.8,46a2,2,0,0,0,2,2h8.3a2,2,0,0,0,2-2V42.9H17.8Z" fill="currentColor" />
    <path d="M34.6,0H13.4A3.47,3.47,0,0,0,10,3.8l3.7,33.9a3.37,3.37,0,0,0,3.4,3H31a3.45,3.45,0,0,0,3.4-3L38,3.8A3.36,3.36,0,0,0,34.6,0ZM24,11a2.8,2.8,0,0,1,0,5.6,2.73,2.73,0,0,1-2.8-2.8A2.8,2.8,0,0,1,24,11Zm6.1,22.6H17.9a1.1,1.1,0,1,1,0-2.2H30.1a1.1,1.1,0,0,1,0,2.2Zm0-5.8H17.9a1.1,1.1,0,1,1,0-2.2H30.1a1.1,1.1,0,0,1,0,2.2ZM23,6.8a1,1,0,0,1,2,0V8.9a1,1,0,0,1-2,0Zm2,11.8v2.1a1,1,0,1,1-2,0V18.6a1,1,0,0,1,2,0Zm-8.9-4.9a1,1,0,0,1,1-1h2.1a1,1,0,0,1,0,2H17.1A.94.94,0,0,1,16.1,13.7Zm14.8,1H28.8a1,1,0,0,1,0-2h2.1a1,1,0,0,1,1,1A.94.94,0,0,1,30.9,14.7ZM28.2,8.1a1,1,0,0,1,1.4,1.4L28.1,11a1,1,0,1,1-1.4-1.4Zm-6.9,9.7-1.5,1.5a1,1,0,0,1-1.4-1.4l1.5-1.5a1,1,0,0,1,1.4,1.4ZM18.4,8.1a1,1,0,0,1,1.4,0l1.5,1.5A1,1,0,1,1,19.9,11L18.4,9.5A1,1,0,0,1,18.4,8.1Zm9.8,11.2-1.5-1.5a1,1,0,0,1,1.4-1.4l1.5,1.5a1,1,0,0,1-1.4,1.4Z"/>
</svg>