<svg id="Layer_1" data-name="Layer 1" 
    xmlns="http://www.w3.org/2000/svg" viewBox="0 0 48 48">
    <title>mouse</title>
    <path d="M24,16a.73.73,0,1,0,1.45,0V10.18a.73.73,0,0,0-1.45,0V16"/>
    <path d="M24,32a2.19,2.19,0,1,0,2.18,2.19A2.19,2.19,0,0,0,24,32" fill="currentColor" />
    <path d="M37.31,21.16a2.34,2.34,0,0,0,0-.26l0-.16h0A30.66,30.66,0,0,0,36.88,8,5.82,5.82,0,0,0,32,3.14a25.75,25.75,0,0,0-6.53-.94V8.13a2.19,2.19,0,0,1,1.46,2V16a2.17,2.17,0,0,1-1.46,2.05v3.77a.73.73,0,1,1-1.45,0V18.05A2.17,2.17,0,0,1,22.53,16V10.18a2.19,2.19,0,0,1,1.46-2V2.22a31.13,31.13,0,0,0-6.51.92A5.82,5.82,0,0,0,12.55,8c-.49,1.93-.19,4.24.13,6.68.17,1.29.34,2.61.38,3.84A21.23,21.23,0,0,1,12.32,25a21.76,21.76,0,0,1-.84,2.22A12.64,12.64,0,0,0,10.17,32c0,8.53,5.15,13.82,13.45,13.82,5.84,0,10.87-4.09,13-9.92h0v0a15.64,15.64,0,0,0,.49-1.51v0c.14-.51.25-1,.35-1.57v0a13.82,13.82,0,0,0,.21-1.59v0c0-.54.07-1.08.07-1.63a18.3,18.3,0,0,0-1-5.88l.46-2.42ZM14.46,31.23c-.49.65-1.41.64-2.77.07a14.16,14.16,0,0,1,1.14-3.52,21.88,21.88,0,0,0,.89-2.38c.13-.49.25-1,.35-1.49,0-.13,0-.26.08-.4l.09-.47c.71,3.18,1.23,6.86.22,8.19ZM24,37.82a3.64,3.64,0,1,1,3.64-3.63A3.64,3.64,0,0,1,24,37.82Zm12.3-6.88c0,.17,0,.34-.06.52s-.07.62-.13.93-.09.45-.14.67-.1.48-.16.72-.15.53-.23.79-.1.33-.16.49a5.31,5.31,0,0,1-1.42.25c-.68,0-.92-.25-1-.44-1-1.59,1.11-6.76,2.69-10.26,0,.12.07.23.1.35s.1.34.14.52.12.53.17.8l.09.51c0,.29.08.59.11.89,0,.15,0,.29,0,.44,0,.44.05.89.05,1.34s0,1-.06,1.48Z"/>
</svg>