<svg id="Layer_1" data-name="Layer 1" 
    xmlns="http://www.w3.org/2000/svg" viewBox="0 0 48 48">
    <title>n64</title>
    <path d="M35,17.75a1.57,1.57,0,1,0,1.56,1.57A1.57,1.57,0,0,0,35,17.75"/>
    <path d="M26.81,31.44l-.13.12a5,5,0,0,1-.43.35l-.08.07a6,6,0,0,1-.56.3l-.15.07a4.44,4.44,0,0,1-.62.19l-.13,0a3.64,3.64,0,0,1-1.42,0l-.13,0a4.44,4.44,0,0,1-.62-.19l-.15-.07a6,6,0,0,1-.56-.3l-.08-.07a5,5,0,0,1-.43-.35l-.13-.12c-.11-.12-.22-.25-.32-.38h0a3.13,3.13,0,0,0,6.26,0h0c-.1.13-.21.26-.32.38"/>
    <path d="M21.65,28.73a2.35,2.35,0,0,0,4.7,0v0a2.35,2.35,0,0,0-4.7,0v0" fill="currentColor" />
    <path d="M30.27,13.05a1.57,1.57,0,1,0,1.56,1.57,1.57,1.57,0,0,0-1.56-1.57"/>
    <path d="M46.7,16.79l0-.13c0-.24-.07-.48-.12-.73a9.3,9.3,0,0,0-2.66-4.76A13.22,13.22,0,0,0,35.51,7.6L34.86,6A4.65,4.65,0,0,0,31.69,3.2L30.88,3A26.84,26.84,0,0,0,17.12,3l-.81.2A4.65,4.65,0,0,0,13.14,6L12.49,7.6a13.22,13.22,0,0,0-8.38,3.57,9.3,9.3,0,0,0-2.66,4.76,4.69,4.69,0,0,0-.1.62l-.05.24c0,.15-2.46,16.37,1.31,25.59a4.76,4.76,0,0,0,1.43,2,3.39,3.39,0,0,0,2.13.83A3.66,3.66,0,0,0,8.73,44c3.33-3.28,4.68-15.51,4.74-16l.07-.78a8.58,8.58,0,0,1,.86,1.11,7.8,7.8,0,0,1,1.08,3.09c1,6.92,3.57,11,5.56,13.24a4,4,0,0,0,5.92,0c2-2.22,4.57-6.32,5.56-13.24a7.8,7.8,0,0,1,1.08-3.09,7.9,7.9,0,0,1,.86-1.1l.07.78c.06.52,1.41,12.75,4.74,16a3.66,3.66,0,0,0,2.56,1.2h0A3.33,3.33,0,0,0,44,44.34a4.76,4.76,0,0,0,1.43-2c3.77-9.22,1.34-25.44,1.31-25.59Zm-7.82-5.31a.79.79,0,1,1-.78.79.79.79,0,0,1,.78-.79Zm-1.56,1.57a.79.79,0,1,1-.79.78.78.78,0,0,1,.79-.78ZM17.73,18a1.31,1.31,0,0,1-1.31,1.31h-1v1a1.31,1.31,0,0,1-1.31,1.31H12a1.31,1.31,0,0,1-1.31-1.31v-1h-1A1.31,1.31,0,0,1,8.33,18V15.93a1.31,1.31,0,0,1,1.31-1.31h1v-1A1.31,1.31,0,0,1,12,12.27h2.08a1.3,1.3,0,0,1,1.31,1.31v1h1a1.3,1.3,0,0,1,1.31,1.31V18ZM24,35.77a4.71,4.71,0,0,1-4.7-4.7,4.64,4.64,0,0,1,.81-2.59,3.9,3.9,0,0,1,7.78,0,4.64,4.64,0,0,1,.81,2.59,4.71,4.71,0,0,1-4.7,4.7Zm3.13-21.15a3.14,3.14,0,1,1,3.14,3.13,3.15,3.15,0,0,1-3.14-3.13ZM35,22.45a3.14,3.14,0,1,1,3.13-3.13A3.14,3.14,0,0,1,35,22.45Zm3.91-6.27a.78.78,0,1,1,.79-.78.78.78,0,0,1-.79.78Zm1.57-1.56a.79.79,0,1,1,.78-.79.78.78,0,0,1-.78.79Z"/>
    <path d="M13.82,14.88V13.83H12.25v1.05a1.31,1.31,0,0,1-1.31,1.3h-1v1.57h1a1.31,1.31,0,0,1,1.31,1.31v1h1.57v-1a1.31,1.31,0,0,1,1.3-1.31h1.05V16.18H15.12a1.3,1.3,0,0,1-1.3-1.3"/>
</svg>