<svg id="Layer_1" data-name="Layer 1" 
    xmlns="http://www.w3.org/2000/svg" viewBox="0 0 48 48">
    <title>ogn-controller</title>
    <path d="M32,34.79h1.24V36H32Z"/>
    <path d="M14.15,29.86H12.3v1.85H10.45v1.85H12.3V35.4h1.85V33.56H16V31.71H14.15V29.86"/>
    <path d="M20.31,34.17h7.38V36H20.31Z" fill="currentColor" />
    <path d="M39.4,23.09H18.46V14.16a2.16,2.16,0,0,1,4.31,0v4a3.08,3.08,0,1,0,6.16,0V6.46a.62.62,0,0,0-1.24,0v11.7a1.85,1.85,0,1,1-3.69,0v-4a3.39,3.39,0,1,0-6.77,0v8.93H8.6a2.46,2.46,0,0,0-2.46,2.45V39.72A2.46,2.46,0,0,0,8.6,42.18H39.4a2.46,2.46,0,0,0,2.46-2.46V25.54a2.46,2.46,0,0,0-2.46-2.45ZM17.23,34.79H15.38v1.85H11.07V34.79H9.22V30.48h1.85V28.63h4.31v1.85h1.85v4.31Zm1.84,3.69h9.86v1.23H19.07Zm0-5.54h9.86v4.31H19.07Zm0-2.46h9.86v1.23H19.07Zm0-2.46h9.86v1.23H19.07Zm0-2.47h9.86v1.23H19.07Zm11.7,8h3.7v3.69h-3.7Zm4.93,0h3.69v3.69H35.7Z"/>
    <path d="M36.93,34.79h1.23V36H36.93Z"/>
</svg>