<svg id="Layer_1" data-name="Layer 1" 
    xmlns="http://www.w3.org/2000/svg" viewBox="0 0 48 48">
    <title>ogn</title>
    <path d="M8.34,30.73h3.73v1.49H8.34Z" fill="currentColor" />
    <path d="M16.54,30.73h3.73v1.49H16.54Z" fill="currentColor" />
    <path d="M46.37,18a1.18,1.18,0,0,0,0-.2.3.3,0,0,0,0-.08.54.54,0,0,0-.1-.16l0,0,0,0-6-5.22a.78.78,0,0,0-.49-.18H8.34a.78.78,0,0,0-.49.18l-6,5.22,0,0s0,0-.05,0a.54.54,0,0,0-.1.16.3.3,0,0,0,0,.08,1.18,1.18,0,0,0,0,.2s0,0,0,.05v1.49H6.1A.75.75,0,1,1,6.1,21H1.62v.75H6.1a.75.75,0,0,1,.75.74.76.76,0,0,1-.75.75H1.62V24H6.1a.76.76,0,0,1,.75.75.75.75,0,0,1-.75.74H1.62v5.1a.72.72,0,0,0,.08.32l2.24,4.61a.75.75,0,0,0,.67.42H43.39a.75.75,0,0,0,.67-.42l2.24-4.61a.72.72,0,0,0,.08-.32V18.05s0,0,0-.05Zm-35,3h9a.75.75,0,1,1,0,1.49H11.32a.75.75,0,1,1,0-1.49Zm-4.47,8.2h6.71v4.48H6.85Zm8.2,0h6.71v4.48H15.05ZM30.28,13.57h2.39l4.26,3.73H34l-3.72-3.73Zm4.16,14.92h3v6h-3Zm0-9.7h3V27h-3Z"/>
</svg>