<svg id="Layer_1" data-name="Layer 1" 
    xmlns="http://www.w3.org/2000/svg" viewBox="0 0 48 48">
    <title>xbox</title>
    <path d="M43.6,25.37A61.7,61.7,0,0,0,39.05,14c0-.08-.1-.36-.15-.57-.28-1.09-.46-1.71-1-1.9L32.65,9.65a2.23,2.23,0,0,0-2,.23,11.7,11.7,0,0,1-1.51.84H26.48c0,.48,0,.81,0,.93a3.42,3.42,0,0,1,0,.46,2.73,2.73,0,0,1-2.74,2.74,3.88,3.88,0,0,1-.48,0,2.76,2.76,0,0,1-2.2-2.12,2.72,2.72,0,0,1,0-1.1c0-.11,0-.42,0-.87H19a13.09,13.09,0,0,1-1.67-.83,2.25,2.25,0,0,0-2-.24l-5.26,1.91c-.53.19-.71.81-1,1.9A5.17,5.17,0,0,1,9,14,62.86,62.86,0,0,0,4.4,25.37C2.59,32,3.21,36.3,6.24,38.22A2,2,0,0,0,8.55,38l6.25-5.36a4.21,4.21,0,0,1,2.73-1H30.47a4.21,4.21,0,0,1,2.73,1L39.45,38a2,2,0,0,0,1.29.48,2,2,0,0,0,1-.29c3-1.92,3.65-6.25,1.84-12.85ZM10.09,18a3.43,3.43,0,1,1,3.43,3.42A3.44,3.44,0,0,1,10.09,18Zm13.85,7.49a1.17,1.17,0,0,1-1.18,1.17H21.2V28.2A1.18,1.18,0,0,1,20,29.37H18.26a1.17,1.17,0,0,1-1.17-1.17V26.63H15.52a1.17,1.17,0,0,1-1.17-1.17V23.7a1.17,1.17,0,0,1,1.17-1.18h1.57V21a1.17,1.17,0,0,1,1.17-1.18H20A1.18,1.18,0,0,1,21.2,21v1.56h1.56a1.18,1.18,0,0,1,1.18,1.18v1.76Zm10.12-11.6a1.37,1.37,0,1,1-1.37,1.37,1.37,1.37,0,0,1,1.37-1.37ZM31.32,16.6A1.37,1.37,0,1,1,30,18a1.37,1.37,0,0,1,1.37-1.37ZM29.27,28.24a3.43,3.43,0,1,1,3.42-3.42,3.43,3.43,0,0,1-3.42,3.42Zm4.79-6.16a1.37,1.37,0,1,1,1.37-1.37,1.37,1.37,0,0,1-1.37,1.37Zm2.74-2.74A1.37,1.37,0,1,1,38.17,18a1.37,1.37,0,0,1-1.37,1.37Z"/>
    <path d="M13.52,15.91A2.06,2.06,0,1,0,15.57,18a2.06,2.06,0,0,0-2.05-2.06"/>
    <path d="M19.83,21.15H18.46v2.74H15.72v1.37h2.74V28h1.37V25.26h2.74V23.89H19.83V21.15"/>
    <path d="M22.45,11.82a1.47,1.47,0,0,0,0,.59,1.37,1.37,0,0,0,2.71-.3,1.15,1.15,0,0,0,0-.26s0-.08,0-1.13H22.48a8.61,8.61,0,0,1,0,1.1"/>
    <path d="M29.27,22.76a2.06,2.06,0,1,0,2.05,2.06,2.06,2.06,0,0,0-2.05-2.06" fill="currentColor" />
</svg>