<?xml version="1.0" encoding="utf-8"?><svg width="192" height="144" viewBox="0 0 192 144" xmlns="http://www.w3.org/2000/svg" xmlns:xlink="http://www.w3.org/1999/xlink"><svg data-name="Layer 1" viewBox="0 0 48 48" width="48" height="48" id="gaming--mouse" x="48" xmlns="http://www.w3.org/2000/svg"><path d="M24 16a.73.73 0 101.45 0v-5.82a.73.73 0 00-1.45 0V16"/><path d="M24 32a2.19 2.19 0 102.18 2.19A2.19 2.19 0 0024 32" fill="currentColor"/><path d="M37.31 21.16a2.34 2.34 0 000-.26v-.16A30.66 30.66 0 0036.88 8 5.82 5.82 0 0032 3.14a25.75 25.75 0 00-6.53-.94v5.93a2.19 2.19 0 011.46 2V16a2.17 2.17 0 01-1.46 2.05v3.77a.73.73 0 11-1.45 0v-3.77A2.17 2.17 0 0122.53 16v-5.82a2.19 2.19 0 011.46-2V2.22a31.13 31.13 0 00-6.51.92A5.82 5.82 0 0012.55 8c-.49 1.93-.19 4.24.13 6.68.17 1.29.34 2.61.38 3.84a21.23 21.23 0 01-.74 6.48 21.76 21.76 0 01-.84 2.22A12.64 12.64 0 0010.17 32c0 8.53 5.15 13.82 13.45 13.82 5.84 0 10.87-4.09 13-9.92a15.64 15.64 0 00.49-1.51c.14-.51.25-1 .35-1.57a13.82 13.82 0 00.21-1.59c0-.54.07-1.08.07-1.63a18.3 18.3 0 00-1-5.88l.46-2.42zM14.46 31.23c-.49.65-1.41.64-2.77.07a14.16 14.16 0 011.14-3.52 21.88 21.88 0 00.89-2.38c.13-.49.25-1 .35-1.49 0-.13 0-.26.08-.4l.09-.47c.71 3.18 1.23 6.86.22 8.19zM24 37.82a3.64 3.64 0 113.64-3.63A3.64 3.64 0 0124 37.82zm12.3-6.88c0 .17 0 .34-.06.52s-.07.62-.13.93-.09.45-.14.67-.1.48-.16.72-.15.53-.23.79-.1.33-.16.49a5.31 5.31 0 01-1.42.25c-.68 0-.92-.25-1-.44-1-1.59 1.11-6.76 2.69-10.26 0 .12.07.23.1.35s.1.34.14.52.12.53.17.8l.09.51c0 .29.08.59.11.89v.44c0 .44.05.89.05 1.34s0 1-.06 1.48z"/></svg><svg data-name="Layer 1" viewBox="0 0 48 48" width="48" height="48" id="gaming--n64" x="96" y="48" xmlns="http://www.w3.org/2000/svg"><path d="M35 17.75a1.57 1.57 0 101.56 1.57A1.57 1.57 0 0035 17.75M26.81 31.44l-.13.12a5 5 0 01-.43.35l-.08.07a6 6 0 01-.56.3l-.15.07a4.44 4.44 0 01-.62.19h-.13a3.64 3.64 0 01-1.42 0h-.13a4.44 4.44 0 01-.62-.19l-.15-.07a6 6 0 01-.56-.3l-.08-.07a5 5 0 01-.43-.35l-.13-.12c-.11-.12-.22-.25-.32-.38a3.13 3.13 0 006.26 0c-.1.13-.21.26-.32.38"/><path d="M21.65 28.73a2.35 2.35 0 004.7 0 2.35 2.35 0 00-4.7 0" fill="currentColor"/><path d="M30.27 13.05a1.57 1.57 0 101.56 1.57 1.57 1.57 0 00-1.56-1.57"/><path d="M46.7 16.79v-.13c0-.24-.07-.48-.12-.73a9.3 9.3 0 00-2.66-4.76 13.22 13.22 0 00-8.41-3.57L34.86 6a4.65 4.65 0 00-3.17-2.8l-.81-.2a26.84 26.84 0 00-13.76 0l-.81.2A4.65 4.65 0 0013.14 6l-.65 1.6a13.22 13.22 0 00-8.38 3.57 9.3 9.3 0 00-2.66 4.76 4.69 4.69 0 00-.1.62l-.05.24c0 .15-2.46 16.37 1.31 25.59a4.76 4.76 0 001.43 2 3.39 3.39 0 002.13.83A3.66 3.66 0 008.73 44c3.33-3.28 4.68-15.51 4.74-16l.07-.78a8.58 8.58 0 01.86 1.11 7.8 7.8 0 011.08 3.09c1 6.92 3.57 11 5.56 13.24a4 4 0 005.92 0c2-2.22 4.57-6.32 5.56-13.24a7.8 7.8 0 011.08-3.09 7.9 7.9 0 01.86-1.1l.07.78c.06.52 1.41 12.75 4.74 16a3.66 3.66 0 002.56 1.2 3.33 3.33 0 002.17-.87 4.76 4.76 0 001.43-2c3.77-9.22 1.34-25.44 1.31-25.59zm-7.82-5.31a.79.79 0 11-.78.79.79.79 0 01.78-.79zm-1.56 1.57a.79.79 0 11-.79.78.78.78 0 01.79-.78zM17.73 18a1.31 1.31 0 01-1.31 1.31h-1v1a1.31 1.31 0 01-1.31 1.31H12a1.31 1.31 0 01-1.31-1.31v-1h-1A1.31 1.31 0 018.33 18v-2.07a1.31 1.31 0 011.31-1.31h1v-1A1.31 1.31 0 0112 12.27h2.08a1.3 1.3 0 011.31 1.31v1h1a1.3 1.3 0 011.31 1.31V18zM24 35.77a4.71 4.71 0 01-4.7-4.7 4.64 4.64 0 01.81-2.59 3.9 3.9 0 017.78 0 4.64 4.64 0 01.81 2.59 4.71 4.71 0 01-4.7 4.7zm3.13-21.15a3.14 3.14 0 113.14 3.13 3.15 3.15 0 01-3.14-3.13zM35 22.45a3.14 3.14 0 113.13-3.13A3.14 3.14 0 0135 22.45zm3.91-6.27a.78.78 0 11.79-.78.78.78 0 01-.79.78zm1.57-1.56a.79.79 0 11.78-.79.78.78 0 01-.78.79z"/><path d="M13.82 14.88v-1.05h-1.57v1.05a1.31 1.31 0 01-1.31 1.3h-1v1.57h1a1.31 1.31 0 011.31 1.31v1h1.57v-1a1.31 1.31 0 011.3-1.31h1.05v-1.57h-1.05a1.3 1.3 0 01-1.3-1.3"/></svg><svg data-name="Layer 1" viewBox="0 0 48 48" width="48" height="48" id="gaming--ogn" y="48" xmlns="http://www.w3.org/2000/svg"><path d="M8.34 30.73h3.73v1.49H8.34zM16.54 30.73h3.73v1.49h-3.73z" fill="currentColor"/><path d="M46.37 18a1.18 1.18 0 000-.2.3.3 0 000-.08.54.54 0 00-.1-.16l-6-5.22a.78.78 0 00-.49-.18H8.34a.78.78 0 00-.49.18l-6 5.22H1.8a.54.54 0 00-.1.16.3.3 0 000 .08 1.18 1.18 0 000 .2v1.54h4.4a.75.75 0 110 1.46H1.62v.75H6.1a.75.75 0 01.75.74.76.76 0 01-.75.75H1.62V24H6.1a.76.76 0 01.75.75.75.75 0 01-.75.74H1.62v5.1a.72.72 0 00.08.32l2.24 4.61a.75.75 0 00.67.42h38.78a.75.75 0 00.67-.42l2.24-4.61a.72.72 0 00.08-.32V18.05 18zm-35 3h9a.75.75 0 110 1.49h-9.05a.75.75 0 110-1.49zM6.9 29.2h6.71v4.48H6.85zm8.2 0h6.71v4.48h-6.76zm15.18-15.63h2.39l4.26 3.73H34l-3.72-3.73zm4.16 14.92h3v6h-3zm0-9.7h3V27h-3z"/></svg><svg data-name="Layer 1" viewBox="0 0 48 48" width="48" height="48" id="gaming--ogn-controller" x="48" y="48" xmlns="http://www.w3.org/2000/svg"><path d="M32 34.79h1.24V36H32zM14.15 29.86H12.3v1.85h-1.85v1.85h1.85v1.84h1.85v-1.84H16v-1.85h-1.85v-1.85"/><path d="M20.31 34.17h7.38V36h-7.38z" fill="currentColor"/><path d="M39.4 23.09H18.46v-8.93a2.16 2.16 0 014.31 0v4a3.08 3.08 0 106.16 0V6.46a.62.62 0 00-1.24 0v11.7a1.85 1.85 0 11-3.69 0v-4a3.39 3.39 0 10-6.77 0v8.93H8.6a2.46 2.46 0 00-2.46 2.45v14.18a2.46 2.46 0 002.46 2.46h30.8a2.46 2.46 0 002.46-2.46V25.54a2.46 2.46 0 00-2.46-2.45zm-22.17 11.7h-1.85v1.85h-4.31v-1.85H9.22v-4.31h1.85v-1.85h4.31v1.85h1.85v4.31zm1.84 3.69h9.86v1.23h-9.86zm0-5.54h9.86v4.31h-9.86zm0-2.46h9.86v1.23h-9.86zm0-2.46h9.86v1.23h-9.86zm0-2.47h9.86v1.23h-9.86zm11.7 8h3.7v3.69h-3.7zm4.93 0h3.69v3.69H35.7z"/><path d="M36.93 34.79h1.23V36h-1.23z"/></svg><svg data-name="Layer 1" viewBox="0 0 48 48" width="48" height="48" id="gaming--xbox" x="96" xmlns="http://www.w3.org/2000/svg"><path d="M43.6 25.37A61.7 61.7 0 0039.05 14c0-.08-.1-.36-.15-.57-.28-1.09-.46-1.71-1-1.9l-5.25-1.88a2.23 2.23 0 00-2 .23 11.7 11.7 0 01-1.51.84h-2.66v.93a3.42 3.42 0 010 .46 2.73 2.73 0 01-2.74 2.74 3.88 3.88 0 01-.48 0 2.76 2.76 0 01-2.2-2.12 2.72 2.72 0 010-1.1v-.87H19a13.09 13.09 0 01-1.67-.83 2.25 2.25 0 00-2-.24l-5.26 1.91c-.53.19-.71.81-1 1.9A5.17 5.17 0 019 14a62.86 62.86 0 00-4.6 11.37C2.59 32 3.21 36.3 6.24 38.22A2 2 0 008.55 38l6.25-5.36a4.21 4.21 0 012.73-1h12.94a4.21 4.21 0 012.73 1L39.45 38a2 2 0 001.29.48 2 2 0 001-.29c3-1.92 3.65-6.25 1.84-12.85zM10.09 18a3.43 3.43 0 113.43 3.42A3.44 3.44 0 0110.09 18zm13.85 7.49a1.17 1.17 0 01-1.18 1.17H21.2v1.54a1.18 1.18 0 01-1.2 1.17h-1.74a1.17 1.17 0 01-1.17-1.17v-1.57h-1.57a1.17 1.17 0 01-1.17-1.17V23.7a1.17 1.17 0 011.17-1.18h1.57V21a1.17 1.17 0 011.17-1.18H20A1.18 1.18 0 0121.2 21v1.56h1.56a1.18 1.18 0 011.18 1.18v1.76zm10.12-11.6a1.37 1.37 0 11-1.37 1.37 1.37 1.37 0 011.37-1.37zm-2.74 2.71A1.37 1.37 0 1130 18a1.37 1.37 0 011.37-1.37zm-2.05 11.64a3.43 3.43 0 113.42-3.42 3.43 3.43 0 01-3.42 3.42zm4.79-6.16a1.37 1.37 0 111.37-1.37 1.37 1.37 0 01-1.37 1.37zm2.74-2.74A1.37 1.37 0 1138.17 18a1.37 1.37 0 01-1.37 1.37z"/><path d="M13.52 15.91A2.06 2.06 0 1015.57 18a2.06 2.06 0 00-2.05-2.06M19.83 21.15h-1.37v2.74h-2.74v1.37h2.74V28h1.37v-2.74h2.74v-1.37h-2.74v-2.74M22.45 11.82a1.47 1.47 0 000 .59 1.37 1.37 0 002.71-.3 1.15 1.15 0 000-.26v-1.13h-2.68a8.61 8.61 0 010 1.1"/><path d="M29.27 22.76a2.06 2.06 0 102.05 2.06 2.06 2.06 0 00-2.05-2.06" fill="currentColor"/></svg><svg data-name="Layer 1" viewBox="0 0 48 48" width="48" height="48" id="travel--boat" xmlns="http://www.w3.org/2000/svg"><path d="M35.7 27.5H24.2l-3-4.2H5v9.4h30.7zm-28.2 0a1.2 1.2 0 010-2.4 1.16 1.16 0 011.2 1.2 1.1 1.1 0 01-1.2 1.2zm4.7 0a1.2 1.2 0 111.2-1.2 1.22 1.22 0 01-1.2 1.2zm4.6 0a1.2 1.2 0 111.2-1.2 1.16 1.16 0 01-1.2 1.2z" fill="currentColor"/><path d="M28 9.7h4.4v15.7H28zM22.1 5.5a2.72 2.72 0 001.7-.6 2 2 0 001.3.4.9.9 0 00.5-.1 1.71 1.71 0 001.7 1.3h.1a1.4 1.4 0 102.8 0A1.4 1.4 0 0029 5.1v-.3a1.75 1.75 0 00-1.7-1.7A2.22 2.22 0 0025.1.9c-.3 0-.5.1-.7.1a3.29 3.29 0 00-2.3-1 2.8 2.8 0 00-2.8 2.8 2.71 2.71 0 002.8 2.7zM0 34.7l4.5 11.4A3 3 0 007.3 48h33.5a3.17 3.17 0 002.8-1.9L48 34.7zm37.9 5.1a1.6 1.6 0 111.6-1.6 1.64 1.64 0 01-1.6 1.6zm4.7 0a1.6 1.6 0 111.6-1.6 1.58 1.58 0 01-1.6 1.6z"/></svg><svg data-name="Layer 1" viewBox="0 0 48 48" width="48" height="48" id="travel--camera" y="96" xmlns="http://www.w3.org/2000/svg"><path d="M24 36.2a9.5 9.5 0 10-9.5-9.5 9.56 9.56 0 009.5 9.5zm1.6-15c.6-.6 2.1-.2 3.3.9s1.6 2.6.9 3.3-2.1.2-3.3-.9-1.6-2.6-.9-3.3z" fill="currentColor"/><path d="M35.4 26.7a11.4 11.4 0 01-22.8 0 11 11 0 011.2-5.1H0v17.2a3 3 0 003 3h42a3 3 0 003-3V21.6H34.2a10.67 10.67 0 011.2 5.1zM45 11.6h-2.2V9.2h-4.5v2.4h-4.1L32.6 8a3 3 0 00-2.7-1.8H18.1A2.84 2.84 0 0015.4 8l-1.6 3.6h-4V9.2H5.3v2.4H3a3 3 0 00-3 3v4.9h15.1a11.36 11.36 0 0117.8 0H48v-4.9a3 3 0 00-3-3zM20.2 8.7h7.5a.94.94 0 011 1 .94.94 0 01-1 1h-7.5a.94.94 0 01-1-1 1 1 0 011-1zm21.6 8.4h-2.5a1 1 0 110-2h2.5a1 1 0 010 2z"/></svg><svg viewBox="0 0 48 48" width="48" height="48" id="travel--earth" x="48" y="96" xmlns="http://www.w3.org/2000/svg"><path d="M32.8 6.4h-1.5L31 8.5l.4 1.2-1.7.6-1.5 2 1 2.1-1.6 1.2 4.5 3.3.2 1.8 2-.2v2.1l2.3-.5 3.5-1.6-.7-.6 1.1-3.4-3.3-5.1V9.5l-.4-1.2.5-1.8c-1.8-1.4-3.2-2.4-4.1-2.7l-.4 2.6z" fill="currentColor"/><path d="M37.3 6.5c.6.5 1.2.9 1.5 1.3-.5-.5-1-.9-1.5-1.3zM39.1 8l.2.2-.2-.2z"/><path d="M24 0C10.7 0 0 10.7 0 24s10.7 24 24 24 24-10.7 24-24C48 10.8 37.2 0 24 0zm17.8 26.4l-1.9 1.9-2 .9-.9 3.2-1.9.2-1.9 2.4-1.9 1.3 1.2 2.6 2.6.8-3.7.9-3-1.4-1.4 1.6-3.4 1-1 3.1 1.9 1.1h-.4c-3.9 0-7.8-1-11.2-3l1.4-.6 4.1-3-.6-2.4 2.1-2.1 2.4-.4-1-2.8.2-2.1 2.1-3.9v-3.2l-2.7-2.4-4.5.3v-3.3l-.9-1.9.6-3.6-1.7-5.2-2.7.8-1.1 1.9-.6 2.8-1.9 1.3v4.4l-2.5 4.9.7 1-4.1 3.1c-.1-.9-.2-1.7-.2-2.6C2 11.9 11.9 2 24 2c1.8 0 3.6.2 5.4.7h.1c3.1.7 6 2.4 7.8 3.8.5.4 1 .8 1.5 1.3.1 0 .2.1.3.2l.2.2.2.2c4.1 4 6.4 9.4 6.5 15.1l-3.1-.3-1.1 3.2zM39.5 8.4l-.2-.2.2.2z"/><path d="M38.8 7.8c.1 0 .2.1.3.2-.1-.1-.2-.2-.3-.2z"/></svg><svg data-name="Layer 1" viewBox="0 0 48 48" width="48" height="48" id="travel--luggage" x="96" y="96" xmlns="http://www.w3.org/2000/svg"><path d="M33 6.1a1.42 1.42 0 00-1.4-.9H16.4a1.57 1.57 0 00-1.4.9L13 11h-2l4.1 4.1 4.8-.9a.81.81 0 01.9.3l7.8 7.8a1 1 0 010 1.4L22.3 30a1 1 0 01-1.4 0l-7.8-7.8a1.4 1.4 0 01-.3-.9l.9-4.8-4.1-4.1v30.4h28.8V11H35zM16.3 11l1.2-2.8h13.2l1.2 2.8zM45 11h-4.6v31.8H45a3 3 0 003-3V14a3 3 0 00-3-3zM0 14v25.8a3 3 0 003 3h4.6V11H3a3 3 0 00-3 3z"/><path fill="currentColor" d="M26.4 23l-6.7-6.7-4.1.7-.7 4.1 6.7 6.7 4.8-4.8z"/></svg><svg data-name="Layer 1" viewBox="0 0 48 48" width="48" height="48" id="travel--map" x="144" xmlns="http://www.w3.org/2000/svg"><path d="M38.6 26a1 1 0 00-1-.8H10.3a1 1 0 00-1 .8L4.8 46.8a1 1 0 001 1.2h36.4a.94.94 0 001-1c0-.2-4.6-21-4.6-21zm-.8 5.2l.8 4.1-8.1 3.6-1.5-.8 3.2-5.6zm-20.3-4h19.4l.5 2.1-6.1 1.4a1.16 1.16 0 00-.7.5l-3.4 6-2.6-1.4h-1.2l-3.9 3-5.2-3.7 2.5-7.9zm-6.4 0h3.6l-2.5 7.9a1 1 0 00.4 1.1l5.1 3.6-10.5 5.3zM10 46l10-5.1a.35.35 0 01.2-.1l4-3 5.9 3.1a1 1 0 00.9 0l8.2-3.6L41 46z"/><path d="M24.6 35.8s3.54-5.53 6.4-10.6c2.7-4.8 5.1-10 5.1-13a12.15 12.15 0 10-24.3 0c0 2 1 4.91 2.53 8.06.53.92 7.51 13.2 9.07 15.54zm-9.1-23.6a8.5 8.5 0 118.5 8.5 8.49 8.49 0 01-8.5-8.5z" fill="currentColor"/></svg><svg data-name="Layer 1" viewBox="0 0 48 48" width="48" height="48" id="travel--sunscreen" x="144" y="48" xmlns="http://www.w3.org/2000/svg"><path d="M17.8 46a2 2 0 002 2h8.3a2 2 0 002-2v-3.1H17.8z" fill="currentColor"/><path d="M34.6 0H13.4A3.47 3.47 0 0010 3.8l3.7 33.9a3.37 3.37 0 003.4 3H31a3.45 3.45 0 003.4-3L38 3.8A3.36 3.36 0 0034.6 0zM24 11a2.8 2.8 0 010 5.6 2.73 2.73 0 01-2.8-2.8A2.8 2.8 0 0124 11zm6.1 22.6H17.9a1.1 1.1 0 110-2.2h12.2a1.1 1.1 0 010 2.2zm0-5.8H17.9a1.1 1.1 0 110-2.2h12.2a1.1 1.1 0 010 2.2zM23 6.8a1 1 0 012 0v2.1a1 1 0 01-2 0zm2 11.8v2.1a1 1 0 11-2 0v-2.1a1 1 0 012 0zm-8.9-4.9a1 1 0 011-1h2.1a1 1 0 010 2h-2.1a.94.94 0 01-1-1zm14.8 1h-2.1a1 1 0 010-2h2.1a1 1 0 011 1 .94.94 0 01-1 1zm-2.7-6.6a1 1 0 011.4 1.4L28.1 11a1 1 0 11-1.4-1.4zm-6.9 9.7l-1.5 1.5a1 1 0 01-1.4-1.4l1.5-1.5a1 1 0 011.4 1.4zm-2.9-9.7a1 1 0 011.4 0l1.5 1.5a1 1 0 11-1.4 1.4l-1.5-1.5a1 1 0 010-1.4zm9.8 11.2l-1.5-1.5a1 1 0 011.4-1.4l1.5 1.5a1 1 0 01-1.4 1.4z"/></svg></svg>